#!OML:ASF H:\Punching\Project 1\Capture day 1\Session 1\female.ASF
:FULLY-SPECIFIED
:DEGREES
900
root -1.34609 14.3506 5.75125 14.9883 -27.2993 -4.65323
lowerback -0.246016 -3.55877 -6.67941
upperback -3.89667 -5.04073 -3.51868
thorax -3.65509 -2.37818 0.219336
lowerneck 3.44579 13.3043 27.0387
upperneck 30.202 19.4394 -9.13351
head 13.4634 10.805 -5.40214
rclavicle -9.93923e-017 0
rhumerus 12.7984 35.4991 -84.1611
rradius 129.164
rwrist -37.4654
rhand -16.6425 -5.63862
rfingers 7.12502
rthumb 9.5803 -35.4008
lclavicle -9.93923e-017 0
lhumerus 8.76322 12.6623 49.1382
lradius 81.0076
lwrist 21.1915
lhand -9.84258 31.7686
lfingers 7.12502
lthumb 16.1352 61.1169
rfemur -55.9733 17.4728 16.4981
rtibia 51.7242
rfoot -10.2815 13.2396
rtoes 2.18598
lfemur 27.2377 17.7331 -6.31687
ltibia -1.90833e-014
lfoot -17.3422 2.72099
ltoes -34.317
901
root -1.34756 14.3707 5.75933 15.0029 -26.172 -4.19765
lowerback -0.297497 -3.34997 -6.64914
upperback -3.8701 -4.75446 -3.56619
thorax -3.61837 -2.23827 0.144931
lowerneck 2.71035 12.8806 26.3533
upperneck 30.3132 18.6258 -8.88651
head 13.3455 10.3822 -5.33231
rclavicle 2.38542e-014 3.81667e-014
rhumerus 12.7522 34.8589 -84.2656
rradius 129.358
rwrist -38.2824
rhand -16.7959 -5.80904
rfingers 7.12502
rthumb 9.43227 -35.578
lclavicle 2.38542e-014 3.81667e-014
lhumerus 8.27094 10.7848 50.6004
lradius 86.5933
lwrist 24.3837
lhand -10.1379 32.4384
lfingers 7.12502
lthumb 15.8509 61.8096
rfemur -56.1985 17.4493 15.6469
rtibia 51.9911
rfoot -10.6231 11.8703
rtoes 1.4636
lfemur 26.5201 16.8286 -6.65242
ltibia -2.22639e-014
lfoot -17.0997 2.63304
ltoes -34.5065
902
root -1.3528 14.3928 5.76538 15.0126 -24.7964 -3.74718
lowerback -0.289399 -3.14772 -6.61465
upperback -3.8225 -4.47919 -3.58284
thorax -3.58971 -2.10292 0.103367
lowerneck 1.89044 12.4273 25.6132
upperneck 30.4802 17.7506 -8.58333
head 13.2524 9.93092 -5.23451
rclavicle 9.0447e-014 0
rhumerus 12.7933 34.2008 -84.2875
rradius 129.536
rwrist -39.1711
rhand -16.9648 -5.96364
rfingers 7.12502
rthumb 9.26935 -35.7399
lclavicle 9.0447e-014 0
lhumerus 7.8333 8.79467 52.1758
lradius 91.8575
lwrist 26.0001
lhand -9.77923 32.6123
lfingers 7.12502
lthumb 16.1962 61.9557
rfemur -56.3413 17.3362 14.8023
rtibia 52.2536
rfoot -10.9853 10.3664
rtoes 0.744085
lfemur 25.7271 15.6882 -6.93554
ltibia 4.13472e-014
lfoot -16.8381 2.59057
ltoes -34.6454
903
root -1.36164 14.4161 5.76981 15.0187 -23.1869 -3.30975
lowerback -0.214421 -2.94342 -6.56609
upperback -3.7687 -4.20512 -3.56367
thorax -3.58993 -1.96684 0.0944843
lowerneck 1.01644 11.9292 24.8036
upperneck 30.6918 16.7988 -8.21264
head 13.1702 9.44554 -5.10677
rclavicle -2.00773e-014 6.20208e-014
rhumerus 12.876 33.5165 -84.2087
rradius 129.724
rwrist -40.0956
rhand -17.1241 -6.0892
rfingers 7.12502
rthumb 9.11561 -35.8722
lclavicle -2.00773e-014 6.20208e-014
lhumerus 7.44366 6.66387 53.9031
lradius 96.7971
lwrist 26.3111
lhand -9.00591 32.3608
lfingers 7.12502
lthumb 16.9408 61.642
rfemur -56.3909 17.1163 13.9915
rtibia 52.518
rfoot -11.3683 8.76738
rtoes 0.0464183
lfemur 24.8721 14.3261 -7.15757
ltibia 6.36111e-015
lfoot -16.5669 2.60742
ltoes -34.7348
904
root -1.37357 14.4399 5.77348 15.0233 -21.3564 -2.89175
lowerback -0.0795244 -2.73993 -6.49182
upperback -3.71666 -3.93563 -3.50354
thorax -3.62398 -1.83188 0.116379
lowerneck 0.130177 11.3823 23.9217
upperneck 30.9259 15.7793 -7.78456
head 13.0877 8.93016 -4.95266
rclavicle 1.51076e-014 3.33958e-014
rhumerus 12.9766 32.8156 -84.0228
rradius 129.938
rwrist -41.0199
rhand -17.2737 -6.19421
rfingers 7.12502
rthumb 8.97128 -35.9835
lclavicle 1.51076e-014 3.33958e-014
lhumerus 7.08431 4.40588 55.7878
lradius 101.45
lwrist 25.7113
lhand -8.06528 31.8174
lfingers 7.12502
lthumb 17.846 61.0186
rfemur -56.3355 16.7609 13.2461
rtibia 52.7901
rfoot -11.7733 7.12022
rtoes -0.610295
lfemur 23.9659 12.7553 -7.3119
ltibia 6.04305e-014
lfoot -16.2889 2.69072
ltoes -34.778
905
root -1.38802 14.4639 5.77718 15.0289 -19.3279 -2.49937
lowerback 0.107243 -2.53561 -6.37997
upperback -3.6762 -3.6682 -3.40517
thorax -3.69885 -1.6971 0.158789
lowerneck -0.730392 10.7836 22.9844
upperneck 31.1705 14.6973 -7.30319
head 12.9995 8.38955 -4.77617
rclavicle -2.5842e-015 -2.22639e-014
rhumerus 13.0533 32.0934 -83.7393
rradius 130.203
rwrist -41.9022
rhand -17.4063 -6.28283
rfingers 7.12502
rthumb 8.84324 -36.0775
lclavicle -2.5842e-015 -2.22639e-014
lhumerus 6.74337 2.02984 57.8116
lradius 105.873
lwrist 24.6499
lhand -7.16781 31.1588
lfingers 7.12502
lthumb 18.7094 60.279
rfemur -56.1683 16.2554 12.5906
rtibia 53.07
rfoot -12.201 5.46376
rtoes -1.23535
lfemur 23.0196 10.9987 -7.39434
ltibia 4.77083e-014
lfoot -16.0085 2.84872
ltoes -34.7841
906
root -1.40432 14.488 5.78185 15.0379 -17.1249 -2.12485
lowerback 0.335192 -2.33771 -6.23402
upperback -3.65277 -3.41181 -3.27574
thorax -3.8142 -1.56712 0.215396
lowerneck -1.54176 10.1393 22.0199
upperneck 31.3992 13.5682 -6.78442
head 12.9006 7.83192 -4.58485
rclavicle -1.21259e-014 7.95139e-015
rhumerus 13.0959 31.3554 -83.3726
rradius 130.539
rwrist -42.7199
rhand -17.5225 -6.37556
rfingers 7.12502
rthumb 8.73118 -36.175
lclavicle -1.21259e-014 7.95139e-015
lhumerus 6.41174 -0.441314 59.939
lradius 110.088
lwrist 23.4844
lhand -6.46379 30.5411
lfingers 7.12502
lthumb 19.3865 59.5947
rfemur -55.8892 15.5899 12.0258
rtibia 53.3534
rfoot -12.6557 3.83076
rtoes -1.84559
lfemur 22.0372 9.07857 -7.41625
ltibia -6.36111e-014
lfoot -15.7271 3.08408
ltoes -34.7515
907
root -1.42195 14.5119 5.78797 15.0594 -14.7794 -1.76274
lowerback 0.576451 -2.14071 -6.05311
upperback -3.64916 -3.15666 -3.12756
thorax -3.95844 -1.4378 0.271079
lowerneck -2.28964 9.44782 21.0391
upperneck 31.5957 12.3885 -6.22236
head 12.784 7.25714 -4.37818
rclavicle 9.72057e-014 4.77083e-015
rhumerus 13.09 30.5875 -82.9331
rradius 130.951
rwrist -43.4191
rhand -17.6541 -6.51283
rfingers 7.12502
rthumb 8.60411 -36.3175
lclavicle 9.72057e-014 4.77083e-015
lhumerus 6.1121 -3.03008 62.1276
lradius 114.078
lwrist 22.4745
lhand -6.04627 30.0522
lfingers 7.12502
lthumb 19.7879 59.065
rfemur -55.5117 14.7718 11.5417
rtibia 53.6292
rfoot -13.1335 2.25262
rtoes -2.41588
lfemur 21.0174 7.02589 -7.38733
ltibia 9.54166e-015
lfoot -15.4425 3.39545
ltoes -34.6797
908
root -1.4405 14.5356 5.79579 15.1003 -12.3141 -1.41211
lowerback 0.815329 -1.94678 -5.84059
upperback -3.65964 -2.90365 -2.96595
thorax -4.11664 -1.31016 0.321244
lowerneck -2.99647 8.72187 20.0716
upperneck 31.7534 11.1729 -5.63717
head 12.6608 6.67203 -4.1645
rclavicle -2.5842e-014 -2.8625e-014
rhumerus 13.0597 29.793 -82.4344
rradius 131.438
rwrist -43.959
rhand -17.8068 -6.72168
rfingers 7.12502
rthumb 8.45674 -36.5324
lclavicle -2.5842e-014 -2.8625e-014
lhumerus 5.87542 -5.73916 64.3334
lradius 117.82
lwrist 21.7763
lhand -5.94942 29.7179
lfingers 7.12502
lthumb 19.881 58.721
rfemur -55.0442 13.8135 11.1304
rtibia 53.8828
rfoot -13.6314 0.745473
rtoes -2.95614
lfemur 19.9596 4.86276 -7.30795
ltibia 4.77083e-014
lfoot -15.1529 3.77692
ltoes -34.5634
909
root -1.45962 14.5586 5.80549 15.1676 -9.74979 -1.08063
lowerback 1.03786 -1.75366 -5.58651
upperback -3.67767 -2.64767 -2.79542
thorax -4.27461 -1.18265 0.3549
lowerneck -3.6915 7.96377 19.0871
upperneck 31.8727 9.91227 -4.99656
head 12.5334 6.07162 -3.92665
rclavicle -1.23246e-014 4.77083e-015
rhumerus 13.0081 28.9665 -81.89
rradius 132
rwrist -44.3214
rhand -17.9611 -6.94405
rfingers 7.12502
rthumb 8.30792 -36.7607
lclavicle -1.23246e-014 4.77083e-015
lhumerus 5.7183 -8.55242 66.5219
lradius 121.297
lwrist 21.4998
lhand -6.11167 29.4833
lfingers 7.12502
lthumb 19.725 58.5025
rfemur -54.4926 12.7295 10.795
rtibia 54.1003
rfoot -14.1515 -0.681226
rtoes -3.4837
lfemur 18.8647 2.61141 -7.16737
ltibia 4.45278e-014
lfoot -14.857 4.22177
ltoes -34.4176
910
root -1.47889 14.5809 5.81716 15.2631 -7.10367 -0.782562
lowerback 1.22742 -1.55489 -5.27148
upperback -3.69688 -2.37748 -2.61619
thorax -4.41693 -1.05092 0.360012
lowerneck -4.38372 7.17213 18.077
upperneck 31.9508 8.60467 -4.30001
head 12.4047 5.45401 -3.66354
rclavicle 1.39149e-014 -6.36111e-015
rhumerus 12.946 28.0975 -81.3116
rradius 132.617
rwrist -44.4988
rhand -18.0997 -7.15696
rfingers 7.12502
rthumb 8.17411 -36.9788
lclavicle 1.39149e-014 -6.36111e-015
lhumerus 5.6676 -11.4597 68.6578
lradius 124.517
lwrist 21.7002
lhand -6.47035 29.3076
lfingers 7.12502
lthumb 19.3802 58.3619
rfemur -53.8595 11.5309 10.5508
rtibia 54.2719
rfoot -14.6904 -2.0234
rtoes -3.99819
lfemur 16.3768 0.346896 -7.10308
ltibia 2.70818
lfoot -15.9135 4.74493
ltoes -34.2637
911
root -1.49836 14.6022 5.83048 15.385 -4.38352 -0.530387
lowerback 1.38871 -1.34506 -4.87829
upperback -3.73004 -2.08624 -2.42834
thorax -4.55966 -0.911792 0.32691
lowerneck -5.03362 6.33349 17.0395
upperneck 31.9783 7.24114 -3.55288
head 12.2655 4.81488 -3.38001
rclavicle -1.21259e-014 -7.95139e-015
rhumerus 12.8395 27.1789 -80.7234
rradius 133.285
rwrist -44.5183
rhand -18.2092 -7.32503
rfingers 7.12502
rthumb 8.06845 -37.151
lclavicle -1.21259e-014 -7.95139e-015
lhumerus 5.69372 -14.4582 70.7181
lradius 127.523
lwrist 22.3972
lhand -6.99007 29.1668
lfingers 7.12502
lthumb 18.8804 58.2705
rfemur -53.1515 10.2252 10.4155
rtibia 54.396
rfoot -15.2436 -3.2875
rtoes -4.50067
lfemur 13.9072 -2.00799 -6.85433
ltibia 5.33097
lfoot -16.9368 5.32544
ltoes -34.1405
912
root -1.51808 14.6224 5.8451 15.5322 -1.60407 -0.333952
lowerback 1.51272 -1.12331 -4.40237
upperback -3.77082 -1.77135 -2.22924
thorax -4.69 -0.764599 0.255285
lowerneck -5.65015 5.44954 15.9762
upperneck 31.9493 5.82816 -2.77296
head 12.1202 4.15466 -3.08221
rclavicle -4.77083e-015 -6.36111e-015
rhumerus 12.7158 26.206 -80.1296
rradius 133.987
rwrist -44.4294
rhand -18.291 -7.44346
rfingers 7.12502
rthumb 7.98944 -37.2725
lclavicle -4.77083e-015 -6.36111e-015
lhumerus 5.80276 -17.5005 72.6658
lradius 130.363
lwrist 23.5825
lhand -7.64009 29.0569
lfingers 7.12502
lthumb 18.2551 58.2203
rfemur -52.389 8.81428 10.4061
rtibia 54.4799
rfoot -15.7978 -4.47258
rtoes -4.99394
lfemur 11.7779 -4.43312 -6.38293
ltibia 7.19399
lfoot -17.5864 5.9355
ltoes -34.0256
